<svg width="173" height="17" viewBox="0 0 173 17" fill="none" xmlns="http://www.w3.org/2000/svg">
<path d="M69.9546 14.5576C70.2868 14.2289 70.6016 13.876 70.8818 13.4574L70.1449 12.468L69.2039 13.6581L67.737 11.9456C68.6607 11.3609 69.0966 10.7485 69.0966 9.97358C69.0966 8.89764 68.3009 8.17803 67.1143 8.17803C65.9345 8.17803 65.1112 8.91493 65.1112 9.97358C65.1112 10.5064 65.2876 10.9527 65.6682 11.3782L65.855 11.5858C64.7029 12.2742 64.1252 13.0596 64.1252 13.9971C64.1252 15.3879 65.17 16.3566 66.6645 16.3566C67.5571 16.3566 68.3563 16.0245 69.0621 15.3914L69.7678 16.2182H71.3869L69.9546 14.5576ZM66.4881 12.5579L68.2906 14.4919C67.7059 14.9797 67.2077 15.2115 66.6991 15.2115C65.9588 15.2115 65.4225 14.6856 65.4225 13.966C65.4225 13.3813 65.7996 13.0181 66.4881 12.5579ZM67.1143 9.30241C67.5813 9.30241 67.8685 9.56535 67.8685 10.0013C67.8685 10.3749 67.6436 10.7001 67.2077 10.9596L66.9932 11.0807L66.5988 10.6274C66.4327 10.4406 66.3532 10.24 66.3532 10.0186C66.3601 9.59302 66.6611 9.30241 67.1143 9.30241ZM131.827 9.78676L133.934 4.27903L136.041 9.78676H131.827ZM94.5388 9.78676L96.6457 4.27903L98.7526 9.78676H94.5388ZM162.873 9.78676L164.98 4.27903L167.087 9.7833L162.873 9.78676ZM142.098 16.2044H144.413V4.71494L155.162 16.2044H156.885V0.521869H154.594L154.591 12.2223L143.634 0.521869H142.095L142.098 16.2044ZM107.239 2.43159H107.63C109.512 2.37969 111.595 2.28974 111.595 4.64921C111.595 7.07095 109.647 7.0329 107.609 7.08825H107.239V2.43159ZM32.0994 16.2044H38.8975V14.2912H34.4623L34.4727 0.518411H32.1097L32.0994 16.2182V16.2044ZM0.371094 16.2182V0.549547H5.29415C9.91275 0.549547 13.189 3.9469 13.3032 8.17803C13.4243 12.5233 10.4525 16.2182 5.29415 16.2182C5.29761 16.2182 0.371094 16.2182 0.371094 16.2182ZM51.9853 16.2044H60.1016V14.312H54.452V8.92185H59.9494V7.02252H54.452V2.43504H60.1016V0.518411H51.9853V16.2217V16.2044ZM51.2865 1.76388C50.5945 1.1792 50.3212 1.02697 49.1 0.542626C48.0967 0.148228 46.9239 -0.0143739 45.931 0.0133031C44.6993 0.0513591 43.9763 0.227804 42.8484 0.708692C39.2816 2.22401 37.4514 5.26848 37.7766 9.01526C38.0638 12.3019 39.7382 14.5437 42.8484 15.9138C43.9659 16.405 44.6751 16.5919 45.8998 16.6541C47.1557 16.7199 47.9133 16.6161 49.0965 16.2113C50.0099 15.8999 50.553 15.6854 51.283 15.0696V12.9039C51.283 12.9039 50.0168 13.7688 49.0965 14.0975C47.9133 14.5161 47.1488 14.6821 45.8998 14.5403C44.6267 14.3984 43.8829 14.1009 42.8484 13.3709C41.9974 12.7724 41.5372 12.3365 41.0356 11.4439C40.5512 10.5894 40.4267 10.0082 40.3437 9.03602C40.1361 6.63158 40.8419 4.78068 42.8519 3.34147C43.8794 2.60457 44.6301 2.3105 45.9033 2.17211C47.1557 2.03719 47.9168 2.22747 49.1 2.64262C50.0133 2.96437 50.4838 3.31033 51.2865 3.81198V1.76388ZM89.9132 4.06799C88.9999 1.7708 85.9969 0.0859592 82.7587 0.00638767C77.9222 -0.114699 73.9263 3.81544 74.0024 8.47902C74.0785 13.0699 77.9948 16.7545 82.7587 16.6818C89.8268 16.5746 91.131 10.7762 90.6605 8.18495H83.0909V10.1085H88.1108C87.834 13.3398 85.5161 14.3846 82.7553 14.5714C79.2853 14.8067 76.5314 11.8314 76.4657 8.47902C76.3965 5.05744 79.2091 2.11676 82.7553 2.14789C85.132 2.16865 87.1386 3.53521 88.052 5.06091L89.9132 4.06799ZM22.7411 14.5022C21.0458 14.5022 19.5201 13.8795 18.2954 12.7032C17.0949 11.5235 16.4515 10.0532 16.4515 8.39599C16.4515 6.73883 17.0949 5.23042 18.2954 4.05069C19.4752 2.89172 21.0424 2.27244 22.7411 2.27244C24.4328 2.27244 25.9793 2.89517 27.1832 4.05069C28.3837 5.20967 29.0307 6.73883 29.0307 8.39599C29.0307 10.0532 28.3872 11.5408 27.1832 12.7032C25.9585 13.8795 24.4121 14.5022 22.7411 14.5022ZM31.449 8.39599C31.449 6.15415 30.584 4.10951 28.9165 2.54576C27.2766 1.00622 25.0383 0.148228 22.7376 0.148228C20.4335 0.148228 18.2228 1.00622 16.5795 2.54576C14.9188 4.10951 14.0228 6.15069 14.0228 8.39599C14.0228 10.6413 14.9119 12.6617 16.5795 14.2255C18.2193 15.7685 20.4335 16.6472 22.7376 16.6472C25.0175 16.6472 27.249 15.7927 28.9165 14.2255C30.5598 12.6859 31.449 10.6378 31.449 8.39599ZM107.249 9.00834H108.782C110.429 9.00142 112.923 9.05677 112.923 11.5996C112.923 13.9176 110.975 14.3639 108.699 14.3431H107.249V9.00834ZM104.7 16.2044H109.758C112.989 16.2044 115.303 15.0904 115.494 11.9663C115.608 10.1085 114.217 8.14689 112.332 7.69022C113.401 6.98792 114.041 6.0642 114.061 4.80489C114.113 1.17228 111.626 0.591064 109.087 0.518411H104.7V16.2044ZM119.109 9.00834H120.642C122.288 9.00142 124.779 9.05677 124.779 11.5996C124.779 13.9176 122.832 14.3639 120.555 14.3431H119.106L119.109 9.00834ZM116.556 16.2044H121.614C124.842 16.2044 127.16 15.0904 127.35 11.9663C127.464 10.1085 126.07 8.14689 124.184 7.69022C125.253 6.98792 125.897 6.0642 125.918 4.80489C125.97 1.17228 123.482 0.591064 120.943 0.518411H116.556V16.2044ZM134.698 0.518411H133.159L126.596 16.2044H129.204L130.962 11.7449H136.888L138.646 16.2044H141.254L134.698 0.518411ZM97.4172 0.518411H95.8776L89.3147 16.2044H91.9198L93.6773 11.7449H99.6037L101.361 16.2044H103.97L97.4172 0.518411ZM165.748 0.518411H164.209L157.649 16.2044H160.254L162.012 11.7449H167.942L169.699 16.2044H172.308L165.748 0.518411ZM2.87933 2.54229V14.2704H5.26993C8.35246 14.2704 10.6393 11.9905 10.7707 8.79385C10.916 5.32038 8.59809 2.60803 5.29761 2.56651L2.87933 2.54229ZM119.099 2.43159H119.49C121.372 2.37969 123.454 2.28974 123.454 4.64921C123.454 7.07095 121.503 7.0329 119.469 7.08825H119.102V2.43159H119.099Z" fill="black"/>
</svg>
