<svg width="161" height="19" viewBox="0 0 161 19" fill="none" xmlns="http://www.w3.org/2000/svg">
<path fill-rule="evenodd" clip-rule="evenodd" d="M3.74772 4.199L3.75734 4.96851C5.17195 3.84082 7.11716 3.70799 8.88529 3.84082C10.808 4.04053 12.5983 5.21128 13.3497 7.02384C14.1231 8.92471 14.0794 11.4887 12.93 13.1906C11.5155 15.2682 9.01803 15.9975 6.67524 15.732C5.5699 15.5778 4.50917 15.2239 3.66903 14.4946L3.62496 14.5608L3.62423 18.9083L0 18.915V4.199H3.74772ZM3.62496 8.57083C3.11645 9.6322 3.38165 11.0686 4.22152 11.9085C5.19412 12.9476 6.65307 13.3234 8.02326 12.9695C9.10607 12.6159 9.92413 11.5989 10.1227 10.4939C10.3221 9.21245 10.079 7.8419 9.0621 7.06863C8.00109 6.18416 6.34353 6.20614 5.17195 6.84712C4.50917 7.17884 3.86791 7.8637 3.62496 8.57083Z" fill="#231F20"/>
<path fill-rule="evenodd" clip-rule="evenodd" d="M64.2124 4.20825H67.5618L67.5719 5.73902C68.1909 4.70018 69.0999 4.00579 70.8125 4.00579C72.5258 4.00579 73.0354 4.52337 73.0354 4.52337L73.0304 7.66233C71.9257 7.08767 70.3348 6.93267 69.1191 7.33062C67.8152 7.81688 67.5719 9.23149 67.5056 10.4693V15.4573H64.2124V4.20825Z" fill="#231F20"/>
<path fill-rule="evenodd" clip-rule="evenodd" d="M28.4682 4.22648V15.4518H24.6732V14.69C23.625 15.4762 22.3182 15.9485 20.8957 15.9485C17.4569 15.9485 14.6689 13.5967 14.6689 9.8515C14.6689 6.10628 17.4569 3.7547 20.8957 3.7547C22.3182 3.7547 23.625 4.22648 24.6732 5.01248V4.22648H28.4682ZM21.8172 13.2385C23.6297 13.2385 25.0994 11.7166 25.0994 9.83941C25.0994 7.96208 23.6297 6.44065 21.8172 6.44065C20.0051 6.44065 18.3937 7.40822 18.3937 9.83941C18.3937 12.2706 20.0051 13.2385 21.8172 13.2385Z" fill="#231F20"/>
<path fill-rule="evenodd" clip-rule="evenodd" d="M87.0238 4.22648V15.4518H83.2292V14.69C82.1808 15.4762 80.8743 15.9485 79.4519 15.9485C76.0126 15.9485 73.2246 13.5967 73.2246 9.8515C73.2246 6.10628 76.0126 3.7547 79.4519 3.7547C80.8743 3.7547 82.1808 4.22648 83.2292 5.01248V4.22648H87.0238ZM80.3736 13.2385C82.1865 13.2385 83.6554 11.7166 83.6554 9.83941C83.6554 7.96208 82.1865 6.44065 80.3736 6.44065C78.5608 6.44065 76.9498 7.40822 76.9498 9.83941C76.9498 12.2706 78.5608 13.2385 80.3736 13.2385Z" fill="#231F20"/>
<path fill-rule="evenodd" clip-rule="evenodd" d="M117.606 4.22648V15.4518H113.811V14.69C112.762 15.4762 111.456 15.9485 110.034 15.9485C106.594 15.9485 103.807 13.5967 103.807 9.8515C103.807 6.10628 106.594 3.7547 110.034 3.7547C111.456 3.7547 112.762 4.22648 113.811 5.01248V4.22648H117.606ZM110.954 13.2385C112.767 13.2385 114.238 11.7166 114.238 9.83941C114.238 7.96208 112.767 6.44065 110.954 6.44065C109.142 6.44065 107.531 7.40822 107.531 9.83941C107.531 12.2706 109.142 13.2385 110.954 13.2385Z" fill="#231F20"/>
<path fill-rule="evenodd" clip-rule="evenodd" d="M92.9048 0.289163V5.01248C93.9528 4.22648 95.26 3.7547 96.6818 3.7547C100.122 3.7547 102.909 6.10628 102.909 9.8515C102.909 13.5967 100.122 15.9485 96.6818 15.9485C95.26 15.9485 93.9528 15.4762 92.9048 14.69V15.4518H89.1104V0.289163H92.9048ZM99.1836 9.83941C99.1836 7.40822 97.5731 6.44065 95.7602 6.44065C93.9482 6.44065 92.4788 7.96208 92.4788 9.83941C92.4788 11.7166 93.9482 13.2385 95.7602 13.2385C97.5731 13.2385 99.1836 12.2706 99.1836 9.83941Z" fill="#231F20"/>
<path fill-rule="evenodd" clip-rule="evenodd" d="M42.9557 11.0465C42.9557 11.8206 42.4665 15.8721 36.3881 15.8721C30.3102 15.8721 29.4009 11.7182 29.4009 9.89464C29.4009 8.07145 30.1445 3.74022 36.5263 3.74022C42.9084 3.74022 42.9535 8.59957 42.9535 8.59957H39.4742C39.4742 8.59957 38.985 6.44907 36.7474 6.44907C34.5095 6.44907 33.3314 7.93367 33.3314 9.895C33.3314 11.8567 34.6759 13.3121 36.6372 13.3121C38.5985 13.3121 39.5185 11.3782 39.5185 11.0465H42.9557Z" fill="#231F20"/>
<path fill-rule="evenodd" clip-rule="evenodd" d="M50.7274 3.92416C53.5455 3.92416 57.7075 5.30837 57.7075 10.0326C57.7075 14.7568 53.2692 16.0623 50.5617 16.0623C47.7437 16.0623 43.7036 14.6738 43.7036 9.89446C43.7036 5.11508 48.1026 3.92416 50.7274 3.92416ZM47.1579 10.009C47.1579 11.9188 48.6591 13.4664 50.5106 13.4664C52.3624 13.4664 53.8635 11.9188 53.8635 10.009C53.8635 8.09949 52.3624 6.55149 50.5106 6.55149C48.6591 6.55149 47.1579 8.09949 47.1579 10.009Z" fill="#231F20"/>
<path fill-rule="evenodd" clip-rule="evenodd" d="M127.119 3.68794C124.114 3.68794 122.984 5.13627 122.902 5.24528V4.19911H119.115V15.4519H122.902V6.98034L122.911 8.77522C122.922 8.3476 123.11 6.63773 125.406 6.63773C127.866 6.63773 127.859 8.06278 127.859 8.06278V15.4519H131.646V9.19928V7.95615V6.96596C131.646 6.96596 131.623 3.68794 127.119 3.68794Z" fill="#231F20"/>
<path fill-rule="evenodd" clip-rule="evenodd" d="M122.912 8.87183L122.911 8.77518C122.91 8.83674 122.912 8.87183 122.912 8.87183Z" fill="#231F20"/>
<path fill-rule="evenodd" clip-rule="evenodd" d="M141.418 3.68794C138.413 3.68794 137.283 5.13627 137.201 5.24528V4.19911H133.414V15.4519H137.201V6.98034L137.209 8.77522C137.22 8.3476 137.409 6.63773 139.705 6.63773C142.164 6.63773 142.158 8.06278 142.158 8.06278V15.4519H145.945V9.19928V7.95615V6.96596C145.945 6.96596 145.921 3.68794 141.418 3.68794Z" fill="#231F20"/>
<path fill-rule="evenodd" clip-rule="evenodd" d="M137.211 8.87183L137.21 8.77518C137.208 8.83674 137.211 8.87183 137.211 8.87183Z" fill="#231F20"/>
<path fill-rule="evenodd" clip-rule="evenodd" d="M151.208 10.7816C151.208 11.9972 151.985 13.3237 154.085 13.3237C156.184 13.3237 157.065 11.8644 157.065 11.8644H160.734C160.734 12.9337 159.168 15.8909 154.195 15.8909C148.586 15.8909 147.362 12.1049 147.362 9.92241C147.362 7.73957 148.56 3.62829 154.25 3.62829C159.942 3.62829 161 7.74782 161 10.7594L151.208 10.7816ZM157.176 8.33072C157.176 8.33072 157.234 6.02384 154.195 6.02384C151.156 6.02384 151.208 8.32825 151.208 8.32825L157.176 8.33072Z" fill="#231F20"/>
</svg>
