<svg width="147" height="20" viewBox="0 0 147 20" fill="none" xmlns="http://www.w3.org/2000/svg">
<path d="M73.7911 19.5004C77.9612 19.4857 81.1027 17.3903 81.1057 13.6281C81.1293 10.2708 77.6036 9.3014 74.4324 8.68668C71.8317 8.18426 69.491 7.22967 69.4644 5.00131C69.4644 4.9422 69.4674 4.88605 69.4674 4.82399C69.6033 3.07735 71.6307 2.11686 73.5133 2.10799C75.3338 2.10503 76.6844 2.87639 77.9139 4.32157L79.8142 2.82319C76.9829 0.908102 75.6264 0.872636 73.5074 0.86377C72.3223 0.86377 70.552 1.1534 69.1127 1.97795C67.6705 2.80841 66.5593 4.12652 66.5563 6.27508C66.5563 6.30464 66.5563 6.33419 66.5563 6.36374C66.58 10.2264 71.0929 10.9091 72.5439 11.2017C74.3024 11.5682 77.6952 12.3307 77.7336 15.2654C77.7041 17.2277 75.5259 18.271 73.7616 18.271C73.7616 18.271 73.7527 18.271 73.735 18.271C72.1982 18.268 69.7925 17.9459 68.1641 15.6407L66.0864 17.2248C67.7828 18.6345 69.757 19.4975 73.7911 19.5004Z" fill="black"/>
<path d="M24.6074 19.0334H36.5206V17.9163H28.1568V10.6815V10.4421H34.8656V9.40478L28.1568 9.43138V2.25571H36.5206V1.15039H24.6074V19.0334Z" fill="black"/>
<path d="M110.154 10.1614C110.189 16.9085 113.615 19.4383 119.103 19.4738C123.184 19.4708 125.099 18.5162 126.083 17.1745C126.624 16.4238 126.772 15.8534 126.799 15.0969H124.419C124.284 17.1242 122.513 18.7645 120.149 18.7674C118.739 18.7674 117.149 18.5547 115.923 17.3577C114.699 16.1608 113.878 14.0388 113.878 10.3416C113.878 6.37256 114.673 4.14124 115.787 2.88816C116.901 1.63507 118.311 1.42228 119.383 1.42228C120.486 1.42228 121.582 1.77398 122.413 2.53055C123.202 3.24871 123.728 4.3363 123.778 5.78148H126.837C126.722 3.14232 125.079 0.905094 119.383 0.869629C113.538 0.911004 110.192 3.40831 110.154 10.1614Z" fill="black"/>
<path d="M7.37449 19.0334H10.6668L17.34 1.15039H15.5964L10.0875 16.6248L9.84814 17.2868L4.58165 1.15039H0.976074L7.37449 19.0334Z" fill="black"/>
<path d="M50.0207 10.4007L47.5914 10.3978V2.01334H50.5054C53.3455 2.01629 55.2045 3.81908 55.2074 5.99424C55.2015 8.15463 53.2805 10.3978 50.0207 10.4007ZM51.2029 11.2046L56.0202 19.0364H59.6376L54.7464 11.1012L54.5927 10.8499L54.8705 10.7495C56.5315 10.1436 58.8337 8.82846 58.8307 5.92627C58.8189 3.04773 56.6556 1.18287 50.8394 1.15332H44.042V19.0364H47.5885V11.2046H51.2029Z" fill="black"/>
<path d="M91.0325 11.7691L95.0016 3.27531L95.2321 2.78472L98.95 11.7691H91.0325ZM99.349 12.7739L101.914 19.0334H105.269L97.6555 1.15039H94.3396L86.0586 19.0334H87.6309L90.5124 12.9128L90.5744 12.7739H99.349Z" fill="black"/>
<path d="M134.63 19.0364H146.544V17.9163H138.177V10.6815V10.4421H144.889V9.40478L138.177 9.43138V2.25571H146.544V1.15039H134.63V19.0364Z" fill="black"/>
</svg>
