<svg width="185" height="21" viewBox="0 0 185 21" fill="none" xmlns="http://www.w3.org/2000/svg">
<path d="M165.753 2.39392C165.753 8.03167 165.753 13.6656 165.753 19.2996C166.191 19.6432 166.845 19.1448 167.328 19.7792C167.026 19.8207 166.83 19.866 166.637 19.8698C163.945 19.8736 161.252 19.8774 158.56 19.866C158.337 19.866 157.925 20.0359 157.997 19.4393C158.734 19.4393 159.47 19.4393 160.308 19.4393C159.647 17.4531 159.021 15.565 158.39 13.6694C156.253 13.6694 154.168 13.6694 152.016 13.6694C151.366 15.5537 150.721 17.438 150.075 19.3185C150.622 19.6243 151.317 19.1561 151.755 19.6357C151.744 19.6961 151.733 19.7527 151.721 19.8132C148.957 19.8132 146.193 19.8132 143.429 19.8132C143.773 19.1561 144.399 19.6055 144.89 19.3336C144.89 13.8318 144.89 8.296 144.89 2.76021C144.86 2.7451 144.826 2.72999 144.796 2.71489C142.855 8.44326 140.914 14.1754 138.977 19.9038C138.928 19.9038 138.879 19.9038 138.833 19.9038C136.787 14.3529 134.74 8.79822 132.697 3.24732C132.671 3.2511 132.644 3.25488 132.618 3.25488C132.618 8.61697 132.618 13.9828 132.618 19.3449C133.139 19.4167 133.641 19.4846 134.147 19.5639C134.162 19.5677 134.162 19.6508 134.185 19.8018C133.966 19.8245 133.751 19.8698 133.536 19.8698C132.187 19.8773 130.839 19.832 129.495 19.8811C127.271 19.9604 125.613 18.4387 125.372 16.0635C125.262 14.9948 125.304 13.9149 125.232 12.8424C125.134 11.3584 124.295 10.4068 122.842 10.2407C121.943 10.1387 121.025 10.2218 120.062 10.2218C120.062 13.2389 120.062 16.2787 120.062 19.3411C120.772 19.6357 121.645 19.141 122.324 19.6206C122.317 19.6848 122.305 19.749 122.298 19.8132C118.231 19.8132 114.168 19.8132 109.98 19.8132C110.286 19.2203 110.762 19.4695 111.12 19.4318C111.517 19.3902 111.925 19.4204 112.423 19.4204C111.762 17.438 111.132 15.5499 110.509 13.6694C108.353 13.6694 106.268 13.6694 104.135 13.6694C103.485 15.5612 102.839 17.4455 102.156 19.4355C102.79 19.4355 103.308 19.4355 103.889 19.4355C103.727 20.1039 103.251 19.8509 102.96 19.8547C100.566 19.8811 100.566 19.8698 100.419 19.4544C100.812 19.4355 101.189 19.4167 101.65 19.394C103.863 13.0615 106.079 6.71002 108.3 0.354813C108.349 0.351037 108.398 0.347262 108.447 0.343486C110.592 6.68359 112.737 13.0199 114.889 19.3902C115.833 19.3902 116.758 19.3902 117.725 19.3902C117.725 13.4126 117.725 7.4728 117.725 1.55185C117.287 1.23088 116.637 1.71044 116.173 1.09871C116.449 1.0534 116.603 1.00809 116.754 1.00809C118.846 1.01564 120.942 0.955218 123.027 1.07605C123.929 1.12892 124.881 1.41968 125.689 1.83128C127.312 2.66202 128.06 4.10828 127.928 5.91326C127.8 7.6465 126.878 8.89262 125.281 9.62897C125.171 9.67806 125.058 9.71959 124.949 9.76491C124.866 9.79889 124.786 9.83287 124.703 9.86686C124.733 9.9386 124.741 10.0066 124.767 10.0141C126.799 10.607 127.516 12.0306 127.622 14.2358C127.671 15.2856 127.599 16.3391 127.66 17.3889C127.686 17.842 127.822 18.3518 128.079 18.7181C128.298 19.0315 128.744 19.3374 129.114 19.3714C130.084 19.462 131.07 19.4016 132.093 19.4016C132.093 13.4164 132.093 7.47657 132.093 1.51786C131.629 1.28374 131.024 1.62359 130.598 1.15157C131.821 0.962769 133.041 1.01941 134.325 1.01186C136.111 5.96613 137.893 10.9128 139.725 16.0031C141.465 10.9317 143.161 6.00011 144.86 1.0534C146.095 1.0534 147.307 1.0534 148.546 1.0534C148.357 1.38947 148.357 1.38947 147.194 1.47255C147.194 7.42371 147.194 13.3786 147.194 19.3789C147.96 19.3789 148.719 19.3789 149.539 19.3789C151.752 13.0388 153.972 6.68737 156.188 0.335938C156.238 0.339714 156.283 0.343486 156.332 0.343486C158.473 6.67604 160.614 13.0086 162.766 19.3751C163.593 19.3751 164.42 19.3751 165.281 19.3751C165.281 13.3975 165.281 7.45769 165.281 1.51786C164.794 1.27996 164.186 1.65002 163.771 1.25731C163.778 1.19689 163.786 1.14025 163.794 1.07983C165.138 1.07983 166.478 1.07983 167.887 1.07983C170.912 5.81886 173.963 10.607 177.018 15.3913C177.052 15.38 177.085 15.3649 177.119 15.3536C177.119 10.7391 177.119 6.12473 177.119 1.52541C176.659 1.23843 176.028 1.69156 175.511 1.06095C178.728 1.06095 181.783 1.06095 184.849 1.06095C184.709 1.35927 184.709 1.35926 183.403 1.47632C183.403 7.43126 183.403 13.39 183.403 19.3298C183.871 19.5941 184.498 19.1523 184.849 19.7943C183.12 19.7943 181.39 19.7943 179.649 19.7943C179.759 19.5035 179.759 19.5035 181.077 19.3525C181.077 13.4051 181.077 7.45014 181.077 1.46122C179.921 1.46122 178.8 1.46122 177.622 1.46122C177.622 7.73335 177.622 13.9866 177.622 20.2361C177.565 20.2625 177.505 20.2852 177.448 20.3116C173.596 14.3151 169.741 8.31488 165.889 2.3184C165.836 2.35239 165.795 2.37504 165.753 2.39392ZM120.021 9.62519C121.984 9.83287 123.748 9.73092 124.835 7.8202C125.7 6.29843 125.591 4.18003 124.545 2.81307C123.638 1.62737 121.728 1.09494 120.021 1.56318C120.021 4.22534 120.021 6.89505 120.021 9.62519ZM110.343 13.2012C109.353 10.2294 108.387 7.32553 107.367 4.25177C106.31 7.32553 105.309 10.2407 104.293 13.2012C106.34 13.2012 108.285 13.2012 110.343 13.2012ZM158.228 13.2012C157.242 10.2369 156.279 7.33686 155.316 4.44058C155.275 4.4368 155.233 4.43303 155.195 4.42925C154.195 7.33686 153.194 10.2482 152.178 13.1974C154.21 13.2012 156.154 13.2012 158.228 13.2012Z" fill="black"/>
<path d="M48.2515 9.99531C50.6569 10.6637 51.1704 12.5253 51.1742 14.7004C51.1742 15.6784 51.1515 16.6602 51.1855 17.6382C51.2308 18.9334 52.1371 19.7641 53.2435 19.5489C53.4474 19.5074 53.6324 19.3676 53.8401 19.3186C53.9459 19.2921 54.078 19.3601 54.3046 19.413C53.7042 20.0587 53.0434 20.1569 52.3448 20.0511C50.3699 19.7528 48.9991 18.1668 48.8859 16.0598C48.8254 14.9383 48.8557 13.813 48.7499 12.699C48.614 11.283 47.7946 10.422 46.3672 10.2483C45.4723 10.1388 44.5509 10.2294 43.5917 10.2294C43.5917 13.2428 43.5917 16.2863 43.5917 19.3714C44.3205 19.5716 45.14 19.277 45.9971 19.5942C45.4458 19.9152 40.8238 19.9907 39.8458 19.7792C39.9478 19.5376 39.9478 19.5376 41.2732 19.3676C41.2732 13.424 41.2732 7.46909 41.2732 1.4915C40.7634 1.44618 40.2763 1.40842 39.793 1.36688C39.793 1.28003 39.7967 1.19696 39.7967 1.1101C39.9591 1.07612 40.1253 1.01193 40.2876 1.01193C42.3796 1.0157 44.4716 0.977944 46.5598 1.07235C47.3754 1.11011 48.2288 1.34045 48.9727 1.6803C50.7475 2.48839 51.5858 3.94975 51.465 5.8869C51.3554 7.66545 50.4114 8.90779 48.7877 9.64414C48.614 9.72343 48.4403 9.79518 48.2666 9.8707C48.259 9.87826 48.2628 9.91601 48.2515 9.99531ZM43.5729 9.62903C45.4911 9.82162 47.2584 9.76119 48.3383 7.88446C49.2824 6.24185 49.2182 4.57659 48.2213 3.01327C47.1262 1.29514 45.359 1.37066 43.5729 1.47261C43.5729 4.20275 43.5729 6.88757 43.5729 9.62903Z" fill="black"/>
<path d="M75.2437 10.2974C75.3003 7.55595 76.3085 4.99951 78.3099 2.88111C81.327 -0.313486 85.6808 -0.234187 88.6942 3.05859C90.7446 5.3016 91.8586 7.95622 91.7 11.0186C91.5489 13.998 90.4199 16.5771 88.1278 18.5784C85.1069 21.2142 80.8021 20.8554 78.0418 17.7288C76.2179 15.6595 75.2852 13.2315 75.2437 10.2974ZM78.1777 10.6524C78.2192 11.4 78.2268 12.2874 78.3212 13.1635C78.4836 14.7079 78.763 16.2335 79.5484 17.608C81.327 20.7157 85.5676 20.7573 87.3688 17.6608C87.7577 16.9887 88.0598 16.2372 88.2448 15.482C88.9547 12.5933 88.917 9.6668 88.5092 6.74408C88.3241 5.39601 87.9314 4.09325 87.1535 2.93776C86.0509 1.31025 84.2157 0.630543 82.3088 1.12144C80.719 1.52926 79.8052 2.64322 79.2048 4.06304C78.3363 6.13235 78.2457 8.32628 78.1777 10.6524Z" fill="black"/>
<path d="M39.1364 10.2519C39.076 13.3333 38.1923 15.8519 36.225 17.9288C33.1437 21.1838 28.6048 21.1649 25.5612 17.8306C21.551 13.4428 21.7058 7.18196 25.7123 2.89984C28.6728 -0.260775 32.8416 -0.257 35.8851 2.83942C37.9733 4.9616 39.0382 7.53691 39.1364 10.2519ZM36.2741 10.4785C36.1457 9.17575 36.0739 7.86543 35.8776 6.57023C35.6623 5.1504 35.2356 3.78345 34.3294 2.6204C32.6792 0.501999 29.4318 0.392495 27.6381 2.39384C26.9169 3.19815 26.5128 4.16106 26.222 5.17684C25.497 7.7446 25.5461 10.3652 25.7161 12.9859C25.8067 14.3943 26.0823 15.7726 26.6714 17.0678C27.2265 18.2838 28.0421 19.2504 29.3638 19.6885C31.8069 20.4928 34.1104 19.4015 35.1563 16.9357C36.04 14.8739 36.1872 12.6913 36.2741 10.4785Z" fill="black"/>
<path d="M13.7268 6.44568C13.6626 6.24933 13.6097 6.04542 13.538 5.85284C13.1792 4.90125 12.9527 3.8666 12.4278 3.01319C10.5813 0.00740185 6.67297 0.615356 5.11721 2.94145C4.35443 4.08183 3.93906 5.35061 3.76913 6.67603C3.38775 9.64783 3.34243 12.6272 4.02969 15.5726C4.27513 16.6223 4.67163 17.6268 5.39664 18.4575C6.5257 19.7565 7.97951 20.1757 9.62212 19.8056C11.1401 19.462 12.0653 18.4311 12.4504 16.9546C12.575 16.4788 12.5637 15.9615 12.575 15.4631C12.5939 14.485 12.5788 13.5108 12.5788 12.4271C11.9633 12.4271 11.4044 12.4271 10.8494 12.4271C10.8267 12.3629 10.804 12.3024 10.7814 12.2382C10.8796 12.1514 10.9777 11.9928 11.0759 11.9928C12.7336 11.9777 14.3914 11.9815 16.0528 11.989C16.1435 11.989 16.2341 12.0948 16.3247 12.1514C16.3247 12.2118 16.321 12.2722 16.321 12.3364C15.8565 12.378 15.3883 12.4157 14.8294 12.4648C14.8294 13.7072 14.8294 14.9382 14.8294 16.1692C14.8294 17.3813 14.8294 18.5897 14.8294 19.8018C14.7765 19.832 14.7199 19.8622 14.667 19.8887C14.5386 19.7716 14.3687 19.6734 14.2894 19.5299C13.874 18.7407 13.5153 18.5595 12.6732 18.8125C12.3787 18.8993 12.0766 19.0315 11.8425 19.2241C9.44464 21.1499 6.26137 20.304 4.4224 18.7294C2.33421 16.9433 1.08809 14.6625 0.702925 11.9739C0.147836 8.12228 1.37885 4.8144 4.31667 2.2844C6.46906 0.430324 8.96885 -0.105885 11.6612 1.29883C12.5562 1.76707 13.0131 1.6047 13.6286 0.732414C13.6739 0.668219 13.7796 0.649344 13.9344 0.566269C13.9344 2.55628 13.9344 4.47077 13.9344 6.38149C13.8551 6.40792 13.791 6.4268 13.7268 6.44568Z" fill="black"/>
<path d="M67.3362 19.8964C67.2078 19.7793 67.0341 19.6849 66.9586 19.5376C66.5357 18.7484 66.1845 18.5672 65.3424 18.8202C65.0479 18.907 64.7458 19.043 64.5117 19.2318C62.0723 21.184 58.8475 20.2853 56.9783 18.6465C55.0298 16.9397 53.829 14.7759 53.4061 12.2648C52.7415 8.31878 53.9952 4.93915 56.9783 2.28077C58.6738 0.770318 60.7318 0.203903 63.005 0.755217C63.4166 0.857172 63.8093 1.06108 64.1983 1.24611C65.2745 1.76344 65.6747 1.66148 66.3469 0.691017C66.3695 0.660808 66.4299 0.653259 66.4715 0.634378C66.7283 1.07618 66.7622 5.785 66.4413 6.57421C66.3355 6.24191 66.2449 6.04555 66.2109 5.84164C66.0259 4.76923 65.6634 3.77611 65.0441 2.86984C63.1409 0.0906161 59.4366 0.634381 57.8695 2.83208C57.0123 4.03289 56.5894 5.40361 56.4194 6.82721C56.0758 9.70461 55.9927 12.5971 56.6951 15.4368C56.9254 16.3695 57.3144 17.3059 57.8355 18.1103C58.7795 19.5641 60.2258 20.1154 61.9515 19.8624C63.6016 19.6207 64.5947 18.6238 65.097 17.0869C65.1347 16.9736 65.1838 16.8566 65.1838 16.7433C65.1914 15.3386 65.1876 13.9376 65.1876 12.4574C64.6401 12.4272 64.0661 12.3932 63.4921 12.363C63.477 12.295 63.4657 12.2233 63.4506 12.1553C63.5941 12.0949 63.7338 11.9854 63.8773 11.9854C65.4633 11.9741 67.0492 11.9741 68.6352 11.9854C68.7674 11.9854 68.8957 12.0873 69.0279 12.144C69.0204 12.212 69.0166 12.2799 69.009 12.3517C68.537 12.3857 68.0612 12.4234 67.5061 12.465C67.5061 14.9194 67.5061 17.3626 67.5061 19.8057C67.4495 19.8359 67.3929 19.8661 67.3362 19.8964Z" fill="black"/>
<path d="M20.4785 19.3411C20.9543 19.5752 21.5396 19.1976 21.9134 19.613C21.9059 19.6734 21.8945 19.7338 21.887 19.7942C20.1689 19.7942 18.4469 19.7942 16.5815 19.7942C17.0385 19.1561 17.6351 19.5903 18.1146 19.3335C18.1146 13.4352 18.1146 7.48409 18.1146 1.51027C17.6577 1.44607 17.1971 1.38943 16.7401 1.31391C16.7213 1.31013 16.725 1.18552 16.7099 1.05713C18.4356 1.05713 20.15 1.05713 21.8681 1.05713C21.7775 1.32901 21.7775 1.32901 20.4785 1.50271C20.4785 7.43877 20.4785 13.3748 20.4785 19.3411Z" fill="black"/>
<path d="M70.7767 1.5255C70.2934 1.26494 69.6703 1.71053 69.1719 1.06104C71.0637 1.06104 72.7932 1.06104 74.685 1.06104C74.1941 1.7143 73.5597 1.25739 73.0839 1.53305C73.0839 7.4389 73.0839 13.375 73.0839 19.3035C73.522 19.6471 74.1752 19.1373 74.6661 19.7868C72.797 19.7868 71.0637 19.7868 69.1794 19.7868C69.6665 19.1486 70.2934 19.598 70.7729 19.3375C70.7767 13.4278 70.7767 7.49176 70.7767 1.5255Z" fill="black"/>
</svg>
