<svg width="207" height="11" viewBox="0 0 207 11" fill="none" xmlns="http://www.w3.org/2000/svg">
<path d="M112 9.56326C112.562 9.56326 113.096 9.56326 113.671 9.56326C113.684 9.68415 113.692 9.77169 113.701 9.88425C111.762 9.88425 109.853 9.88425 107.935 9.88425C107.935 9.77586 107.935 9.69665 107.935 9.57159C108.502 9.57159 109.056 9.57159 109.565 9.57159C109.619 9.50906 109.632 9.49239 109.644 9.47572C109.657 9.45904 109.678 9.44235 109.678 9.42568C109.686 6.75347 109.694 4.07709 109.698 1.40488C109.698 1.309 109.686 1.20895 109.673 1.07972C109.102 0.925469 108.515 1.1089 107.943 0.962989C107.943 0.8546 107.943 0.762886 107.943 0.637822C109.857 0.637822 111.745 0.637822 113.659 0.637822C113.676 0.75038 113.688 0.842092 113.717 1.00051C113.125 1.00051 112.575 1.00051 112.05 1.00051C111.908 1.46325 111.87 3.91868 111.979 4.7983C112.408 4.91086 116.139 4.95254 117.332 4.85666C117.444 4.43978 117.477 2.15527 117.382 1.08805C116.831 0.937977 116.248 1.10473 115.664 0.983834C115.656 0.883783 115.647 0.792067 115.639 0.708691C116.102 0.591964 120.179 0.550278 121.342 0.646161C121.375 0.68368 121.434 0.721195 121.455 0.771221C121.471 0.821246 121.45 0.883779 121.446 0.967155C120.883 1.1089 120.304 0.962989 119.716 1.06721C119.716 3.89783 119.716 6.69928 119.716 9.55908C120.287 9.55908 120.842 9.55908 121.4 9.55908C121.438 9.67581 121.463 9.74669 121.484 9.81339C121.442 9.85091 121.417 9.88842 121.388 9.89676C121.334 9.91343 121.271 9.92594 121.213 9.92594C119.437 9.93011 117.657 9.93011 115.881 9.92594C115.806 9.92594 115.727 9.90093 115.639 9.88425C115.643 9.79254 115.647 9.7175 115.656 9.57576C116.235 9.57576 116.802 9.57576 117.398 9.57576C117.398 8.12085 117.398 6.73263 117.398 5.34441C116.977 5.23185 113.15 5.19433 112.037 5.28605C111.908 5.67375 111.879 8.742 112 9.56326Z" fill="black"/>
<path d="M156.931 5.26941C157.473 5.81135 157.994 5.98227 159.591 6.15736C160.279 7.25793 160.979 8.39185 161.709 9.56329C162.292 9.56329 162.884 9.56329 163.493 9.56329C163.522 9.67585 163.539 9.75088 163.551 9.80508C163.443 9.95098 158.528 9.9885 157.49 9.86761C157.498 9.78423 157.502 9.70086 157.511 9.56329C157.99 9.56329 158.44 9.56329 158.982 9.56329C158.115 8.05001 157.227 6.67013 156.377 5.27357C155.731 5.27357 155.122 5.27357 154.48 5.27357C154.48 6.69514 154.48 8.08336 154.48 9.50076C155.039 9.62999 155.618 9.49242 156.193 9.5883C156.21 9.68835 156.223 9.75922 156.235 9.83426C155.789 9.93431 151.116 9.95515 150.42 9.85927C150.411 9.79257 150.407 9.71753 150.395 9.60914C150.966 9.48825 151.545 9.60498 152.104 9.53828C152.204 9.07971 152.233 1.95937 152.137 1.06307C151.587 0.954685 151.007 1.07141 150.424 0.988032C150.42 0.867136 150.415 0.775424 150.407 0.637853C150.607 0.625346 150.782 0.604502 150.957 0.604502C152.954 0.600333 154.951 0.575319 156.948 0.617007C157.857 0.637852 158.782 0.654529 159.662 0.938008C160.216 1.1131 160.746 1.33822 161.092 1.85098C161.721 2.78479 161.446 4.04377 160.479 4.60239C159.97 4.89421 159.412 5.04846 158.836 5.11099C158.286 5.17352 157.727 5.2027 157.173 5.24022C157.102 5.24856 157.035 5.2569 156.931 5.26941ZM154.497 1.00888C154.401 2.01773 154.43 4.41063 154.538 4.87754C155.618 4.85252 156.71 4.94841 157.794 4.76915C158.653 4.62324 159.049 4.13132 159.141 3.41011C159.182 3.09328 159.191 2.78896 159.149 2.46796C159.045 1.69673 158.536 1.25483 157.903 1.12977C156.781 0.91716 155.651 1.06724 154.497 1.00888Z" fill="black"/>
<path d="M143.457 9.88427C143.457 9.76754 143.457 9.70918 143.457 9.58411C143.92 9.56327 144.379 9.5466 144.921 9.52576C144.058 8.04166 143.17 6.65761 142.315 5.26105C141.669 5.26105 141.052 5.26105 140.443 5.26105C140.331 5.72796 140.318 8.94629 140.435 9.55077C140.973 9.55077 141.527 9.55077 142.094 9.55077C142.111 9.67166 142.123 9.74671 142.132 9.8009C142.015 9.95515 137 9.98016 136.35 9.83842C136.358 9.76755 136.366 9.68833 136.383 9.5591C136.962 9.5591 137.534 9.5591 138.134 9.5591C138.134 6.69512 138.134 3.89368 138.134 1.02553C137.542 1.02553 136.975 1.02553 136.383 1.02553C136.37 0.875458 136.362 0.783746 136.354 0.66285C136.521 0.637837 136.65 0.60032 136.783 0.60032C138.859 0.596151 140.939 0.579472 143.016 0.608653C143.749 0.62116 144.483 0.721213 145.208 0.837939C145.575 0.896303 145.938 1.04638 146.276 1.21314C147.022 1.57999 147.414 2.18447 147.389 3.03907C147.359 3.87284 146.893 4.42312 146.171 4.72745C145.721 4.91921 145.225 5.0276 144.737 5.10681C144.212 5.19019 143.67 5.19852 143.132 5.24021C143.061 5.24438 142.991 5.25272 142.89 5.26105C143.424 5.80717 143.979 5.9906 145.542 6.15318C146.234 7.26208 146.938 8.39183 147.672 9.56743C148.252 9.56743 148.844 9.56743 149.431 9.56743C149.431 9.70084 149.431 9.77588 149.431 9.88427C147.439 9.88427 145.471 9.88427 143.457 9.88427ZM140.406 1.05889C140.302 1.88431 140.327 4.43146 140.443 4.88169C141.544 4.85251 142.657 4.95673 143.766 4.76914C144.466 4.64824 144.962 4.2397 145.067 3.56435C145.129 3.17665 145.129 2.76393 145.071 2.3804C144.971 1.7384 144.6 1.30068 143.933 1.15894C143.816 1.13393 143.703 1.06723 143.591 1.06723C142.536 1.05472 141.486 1.05889 140.406 1.05889Z" fill="black"/>
<path d="M180.277 1.02138C179.701 1.02138 179.147 1.02138 178.572 1.02138C178.563 0.875475 178.559 0.783763 178.551 0.646192C178.755 0.629517 178.93 0.604502 179.105 0.604502C181.123 0.600333 183.141 0.575319 185.158 0.617007C186.026 0.633683 186.913 0.658697 187.751 0.938008C188.072 1.04223 188.393 1.16312 188.681 1.33821C189.819 2.02607 189.94 3.76029 188.702 4.53152C188.356 4.7483 187.947 4.91506 187.547 4.9901C186.747 5.14017 185.934 5.20688 185.096 5.31526C185.158 5.37363 185.221 5.457 185.304 5.5112C185.905 5.89473 186.567 6.08233 187.28 6.11568C187.418 6.12401 187.555 6.12818 187.714 6.13652C188.423 7.27044 189.131 8.40019 189.861 9.5758C190.44 9.5758 191.032 9.5758 191.628 9.5758C191.628 9.7092 191.628 9.78424 191.628 9.89263C189.64 9.89263 187.672 9.89263 185.679 9.89263C185.667 9.80508 185.659 9.7342 185.642 9.59663C186.121 9.57579 186.58 9.55912 187.126 9.5341C186.234 8.07919 185.388 6.69097 184.525 5.28191C183.891 5.28191 183.262 5.28191 182.636 5.28191C182.524 5.76133 182.52 8.98799 182.636 9.56329C183.178 9.56329 183.728 9.56329 184.295 9.56329C184.312 9.68418 184.32 9.75922 184.329 9.81758C184.204 9.96766 179.159 9.98434 178.542 9.84677C178.551 9.7759 178.563 9.70086 178.576 9.57162C179.139 9.57162 179.693 9.57162 180.231 9.57162C180.364 9.09638 180.398 2.05942 180.277 1.02138ZM182.611 1.02555C182.503 1.93852 182.532 4.43564 182.653 4.8817C183.753 4.85252 184.867 4.95257 185.971 4.76498C186.693 4.64408 187.172 4.21887 187.276 3.49766C187.33 3.15165 187.326 2.78063 187.276 2.43044C187.176 1.73425 186.793 1.28402 186.067 1.14228C184.925 0.91716 183.779 1.0589 182.611 1.02555Z" fill="black"/>
<path d="M32.0082 5.2778C32.8587 5.92813 33.7258 6.12823 34.7096 6.11989C35.4183 7.25381 36.1354 8.40023 36.8607 9.5675C37.4569 9.5675 38.0322 9.5675 38.62 9.5675C38.6408 9.68006 38.6492 9.75094 38.6617 9.81347C38.5241 9.94687 33.434 9.96771 32.6752 9.85099C32.6711 9.78012 32.6627 9.70508 32.6544 9.58002C33.1213 9.58002 33.5715 9.58002 34.0926 9.58002C33.8675 8.99221 33.5257 8.55865 33.2505 8.09175C32.9796 7.62901 32.6919 7.1746 32.4084 6.71186C32.1166 6.23662 31.8248 5.76138 31.5205 5.26946C30.8952 5.26946 30.2698 5.26946 29.607 5.26946C29.607 6.69102 29.607 8.07923 29.607 9.52998C30.1865 9.54249 30.7534 9.55499 31.3329 9.5675C31.3412 9.68422 31.3454 9.76344 31.3454 9.83431C30.8952 9.93019 26.2469 9.94269 25.5841 9.85515C25.5758 9.78845 25.5674 9.71341 25.5591 9.61336C26.1302 9.46328 26.7138 9.62169 27.2641 9.51747C27.3683 9.02138 27.3725 1.61757 27.2641 1.02143C26.7264 1.02143 26.1761 1.02143 25.6091 1.02143C25.5883 0.871354 25.5758 0.783811 25.5591 0.658746C25.7258 0.633734 25.8551 0.600383 25.9885 0.600383C28.0437 0.596214 30.1031 0.567032 32.1583 0.612889C33.0463 0.633733 33.9509 0.654573 34.8139 0.933883C35.385 1.12148 35.9311 1.35494 36.2771 1.89689C36.8566 2.80569 36.5939 4.00213 35.6726 4.55659C35.1349 4.88175 34.5387 5.04434 33.9217 5.10687C33.3214 5.17774 32.7294 5.21943 32.0082 5.2778ZM29.6529 1.05895C29.5278 1.61757 29.5403 4.43152 29.6779 4.88175C30.2657 4.88175 30.8618 4.89843 31.458 4.87759C31.954 4.86091 32.4501 4.83173 32.9379 4.76503C33.6758 4.66497 34.151 4.25643 34.2636 3.58942C34.3303 3.20589 34.3344 2.78901 34.2761 2.40547C34.1719 1.76765 33.7967 1.32576 33.1463 1.159C32.9546 1.10898 32.7586 1.05895 32.5627 1.05478C31.6664 1.03394 30.7701 1.02977 29.8738 1.0256C29.7988 1.02143 29.7196 1.04644 29.6529 1.05895Z" fill="black"/>
<path d="M51.506 5.36119C51.4476 7.41642 50.3554 8.72542 48.5878 9.53417C47.7499 9.9177 46.8578 10.0761 45.9365 10.172C44.4732 10.3221 43.0808 10.1011 41.751 9.53C40.3211 8.92135 39.283 7.90417 38.9579 6.33252C38.5743 4.4774 39.0704 2.89742 40.6004 1.7093C41.555 0.971422 42.6598 0.612907 43.8437 0.441986C45.2653 0.237714 46.6618 0.329425 48.0209 0.80467C49.2173 1.22155 50.2345 1.88023 50.9057 2.99747C51.3476 3.74369 51.5185 4.5441 51.506 5.36119ZM49.1464 5.27781C49.0839 4.76505 49.0672 4.23978 48.9463 3.73952C48.5962 2.26793 47.729 1.25074 46.2324 0.854701C45.5321 0.667104 44.8234 0.675437 44.1188 0.850528C43.1183 1.10066 42.3638 1.66345 41.8593 2.56808C41.505 3.20591 41.3341 3.88959 41.2674 4.61497C41.1882 5.5196 41.2382 6.40339 41.5217 7.26633C41.9386 8.52949 42.7598 9.36742 44.0688 9.71343C44.5649 9.84266 45.0568 9.83433 45.5529 9.81349C46.7785 9.76763 47.7165 9.1965 48.3919 8.18765C48.9797 7.30803 49.1047 6.30751 49.1464 5.27781Z" fill="black"/>
<path d="M175.324 6.58252C175.424 6.57836 175.503 6.57419 175.561 6.57002C175.699 6.67424 175.728 8.91289 175.624 9.8342C175.174 9.93842 165.256 9.95093 164.681 9.84671C164.681 9.77584 164.681 9.69663 164.681 9.55906C165.26 9.55906 165.831 9.55906 166.423 9.55906C166.423 6.68675 166.423 3.8853 166.423 1.02549C165.844 1.02549 165.289 1.02549 164.718 1.02549C164.693 0.887922 164.681 0.796212 164.664 0.729511C164.727 0.679485 164.752 0.637792 164.785 0.633623C164.985 0.616948 165.181 0.604445 165.381 0.604445C168.558 0.600276 171.734 0.600276 174.911 0.604445C175.144 0.604445 175.378 0.629456 175.641 0.641963C175.641 1.78839 175.641 2.87645 175.641 4.0062C175.541 4.01454 175.453 4.02287 175.382 4.03121C175.345 3.96868 175.307 3.9395 175.303 3.90615C175.228 3.41423 175.182 2.91814 174.94 2.46374C174.707 2.02601 174.373 1.72168 173.919 1.50074C173.331 1.21309 172.702 1.10471 172.072 1.06302C171.097 0.996316 170.117 1.02966 169.137 1.02133C169.02 1.02133 168.904 1.038 168.795 1.04217C168.695 1.50491 168.674 4.0729 168.762 4.8483C168.887 4.8608 169.02 4.88582 169.15 4.87748C169.646 4.84413 170.146 4.83579 170.634 4.74825C171.301 4.63152 171.747 4.24382 171.88 3.55179C171.93 3.30167 171.968 3.04737 172.01 2.79307C172.101 2.79307 172.155 2.79307 172.21 2.79307C172.326 3.21412 172.364 6.1448 172.264 7.23286C172.201 7.24537 172.13 7.25787 172.022 7.27872C171.959 6.97856 171.905 6.69092 171.843 6.40744C171.718 5.84048 171.334 5.50697 170.796 5.37774C170.138 5.21515 169.462 5.21098 168.791 5.26518C168.687 5.76544 168.654 8.10831 168.733 9.50486C168.854 9.52154 168.987 9.55906 169.116 9.55906C169.917 9.56323 170.717 9.59241 171.513 9.55073C172.305 9.50904 173.093 9.38814 173.823 9.01712C174.59 8.62525 175.032 8.00409 175.203 7.1745C175.249 6.97856 175.286 6.7868 175.324 6.58252Z" fill="black"/>
<path d="M126.949 1.0381C126.949 2.3346 126.949 3.56858 126.949 4.84007C127.099 4.85257 127.232 4.88175 127.362 4.87342C127.878 4.84007 128.395 4.81922 128.908 4.74001C129.554 4.63996 129.992 4.26476 130.13 3.59775C130.167 3.40182 130.18 3.20589 130.221 3.00996C130.238 2.92658 130.288 2.84737 130.371 2.66811C130.446 2.83903 130.513 2.91824 130.513 2.99745C130.522 4.33564 130.522 5.67382 130.513 7.01201C130.513 7.10373 130.43 7.19127 130.351 7.35803C130.284 7.20378 130.238 7.14125 130.226 7.07038C130.192 6.87444 130.171 6.67851 130.134 6.48258C130.013 5.86143 129.609 5.51958 129.021 5.3695C128.771 5.30697 128.512 5.25694 128.258 5.24861C127.841 5.22776 127.424 5.24444 127.02 5.24444C126.899 5.75304 126.895 8.98386 127.011 9.55499C127.395 9.55499 127.791 9.56333 128.183 9.55083C129.017 9.53415 129.855 9.60919 130.688 9.44243C131.218 9.33821 131.739 9.22149 132.21 8.94634C132.927 8.52529 133.344 7.90414 133.49 7.08706C133.515 6.94949 133.536 6.81191 133.586 6.67851C133.606 6.62431 133.686 6.5868 133.744 6.5326C133.907 6.93698 133.952 8.54614 133.848 9.80929C133.832 9.8218 133.819 9.8343 133.807 9.84681C133.79 9.85932 133.777 9.88015 133.761 9.88015C130.263 9.88849 126.77 9.89267 123.276 9.90101C123.18 9.90101 123.08 9.88433 122.963 9.87599C122.955 9.78011 122.955 9.70924 122.947 9.58835C123.526 9.48829 124.102 9.58835 124.66 9.52582C124.764 9.07141 124.798 1.95107 124.698 1.05061C124.147 0.938049 123.564 1.05895 122.98 0.975571C122.968 0.858844 122.959 0.771298 122.951 0.654571C123.076 0.629558 123.168 0.596208 123.264 0.596208C126.774 0.592039 130.288 0.592041 133.782 0.592041C133.927 1.14232 133.923 3.55607 133.79 4.01047C133.736 4.00213 133.677 3.9938 133.594 3.98129C133.565 3.81037 133.519 3.63528 133.502 3.46019C133.381 2.19704 132.602 1.53836 131.601 1.27573C131.022 1.12565 130.438 1.02143 129.834 1.0256C128.887 1.04227 127.949 1.0381 126.949 1.0381Z" fill="black"/>
<path d="M83.7349 10.3472C83.1304 9.9887 82.8552 9.51344 82.4634 9.15493C82.0798 8.80475 81.7255 8.42538 81.3586 8.05436C80.9834 7.66666 80.6208 7.27062 80.2456 6.88292C79.8745 6.49522 79.5035 6.10335 79.1283 5.71565C78.7656 5.34463 78.3946 4.98194 78.0319 4.61092C77.6567 4.22322 77.294 3.82718 76.9188 3.43948C76.5603 3.06429 76.2018 2.69326 75.8391 2.31807C75.4639 1.93871 75.0887 1.55935 74.6969 1.15914C74.5801 1.63439 74.5468 8.63799 74.6552 9.5468C75.2138 9.5468 75.7808 9.5468 76.3644 9.5468C76.3769 9.68854 76.3811 9.75941 76.3852 9.83445C75.9392 9.9345 73.1169 9.947 72.4916 9.85528C72.4916 9.78442 72.4916 9.70938 72.4916 9.57598C73.071 9.55931 73.6338 9.54679 74.23 9.53012C74.23 6.68699 74.23 3.88137 74.23 1.02574C73.6505 1.02574 73.1002 1.02574 72.5541 1.02574C72.5166 0.921516 72.4791 0.871494 72.4832 0.821468C72.4874 0.767273 72.5207 0.717246 72.5708 0.604688C74.1299 0.59635 75.7016 0.600521 77.3232 0.600521C79.3159 2.61406 81.3211 4.63593 83.318 6.65364C83.3638 6.62446 83.3847 6.62029 83.3972 6.60361C83.4097 6.59111 83.4264 6.57443 83.4264 6.56192C83.4347 4.92358 83.4389 3.2894 83.4472 1.65106C83.4472 1.4718 83.4472 1.29671 83.4472 1.09661C82.8552 0.917346 82.2674 1.10911 81.688 0.967373C81.688 0.863152 81.688 0.771442 81.688 0.683896C82.1424 0.583845 84.8604 0.567171 85.5441 0.658885C85.5691 0.725586 85.5942 0.81313 85.6192 0.879831C85.5608 0.934026 85.5358 0.979883 85.5066 0.984052C85.1898 1.00073 84.8688 1.01323 84.5519 1.0174C84.3143 1.02157 84.0767 1.0174 83.7807 1.0174C83.7724 1.27587 83.7557 1.48848 83.7557 1.70526C83.7515 4.3191 83.7557 6.93712 83.7515 9.55097C83.7599 9.76358 83.7474 9.98036 83.7349 10.3472Z" fill="black"/>
<path d="M200.395 9.5592C200.97 9.5592 201.516 9.5592 202.154 9.5592C201.675 8.67125 201.241 7.87084 200.778 7.01623C199.24 7.00372 197.689 7.01206 196.139 7.01206C195.672 7.85833 195.226 8.66707 194.738 9.55503C195.372 9.55503 195.905 9.55503 196.447 9.55503C196.485 9.65925 196.51 9.72596 196.539 9.80933C196.476 9.84685 196.43 9.89688 196.385 9.89688C195.584 9.90521 194.788 9.90939 193.987 9.91356C193.571 9.91772 193.158 9.91356 192.729 9.91356C192.729 9.77182 192.729 9.70095 192.729 9.58005C193.229 9.58005 193.721 9.58005 194.25 9.58005C194.638 8.8922 195.021 8.22101 195.401 7.54566C196.48 5.6155 197.552 3.68534 198.632 1.75101C198.844 1.36748 199.065 0.988122 199.269 0.600422C199.353 0.442007 199.453 0.346123 199.715 0.371136C200.174 1.06316 200.537 1.85523 200.962 2.61395C201.387 3.38102 201.796 4.15225 202.217 4.92348C202.638 5.69471 203.059 6.46177 203.472 7.233C203.888 8.00007 204.297 8.7713 204.726 9.57588C205.318 9.57588 205.894 9.57588 206.465 9.57588C206.465 9.70095 206.465 9.77598 206.465 9.8802C204.46 9.8802 202.471 9.8802 200.432 9.8802C200.416 9.79682 200.407 9.71345 200.395 9.5592ZM198.532 2.86409C198.131 3.31432 196.606 6.09909 196.497 6.55349C197.585 6.65354 200.036 6.61185 200.487 6.48262C199.832 5.27366 199.182 4.07304 198.532 2.86409Z" fill="black"/>
<path d="M88.3957 7.04124C87.9455 7.85416 87.5078 8.65457 87.02 9.53419C87.6287 9.53419 88.154 9.53419 88.7001 9.53419C88.7209 9.66342 88.7334 9.73429 88.7459 9.80516C88.3457 9.93439 85.8278 9.96774 85.0482 9.85518C85.0399 9.78848 85.0357 9.71345 85.0273 9.61757C85.5234 9.47166 86.0237 9.61756 86.5656 9.51751C88.254 6.49512 89.9591 3.43938 91.6391 0.429494C91.9559 0.296092 92.0643 0.44617 92.1644 0.637935C92.4437 1.16321 92.7313 1.68848 93.0148 2.21375C94.2654 4.52744 95.5119 6.84113 96.7667 9.15482C96.8334 9.27572 96.9085 9.39244 97.0043 9.55503C97.5838 9.55503 98.1758 9.55503 98.7844 9.55503C98.7969 9.68009 98.8011 9.75514 98.8053 9.82184C98.6385 9.94273 93.3191 9.95523 92.7063 9.84268C92.7063 9.76764 92.7063 9.6926 92.7063 9.5717C93.2524 9.5717 93.786 9.5717 94.4197 9.5717C94.1654 9.08395 93.9486 8.67124 93.7277 8.2627C93.515 7.85832 93.2941 7.45811 93.0648 7.03706C91.5265 7.04123 89.9966 7.04124 88.3957 7.04124ZM92.8064 6.55765C92.1018 5.25698 91.4515 4.06053 90.7595 2.78071C90.0383 4.07721 89.3671 5.28616 88.6626 6.55765C90.0591 6.55765 91.3681 6.55765 92.8064 6.55765Z" fill="black"/>
<path d="M23.3622 9.5633C23.8208 9.5633 24.3169 9.5633 24.8255 9.5633C24.8463 9.68003 24.8588 9.7509 24.8713 9.80926C24.7421 9.951 19.6978 9.96767 19.0141 9.84678C19.0141 9.77591 19.0141 9.6967 19.0141 9.55913C19.5686 9.55913 20.1189 9.55913 20.7692 9.55913C20.2898 8.66283 19.8604 7.86242 19.4185 7.03699C17.8761 7.03699 16.3419 7.03699 14.7453 7.03699C14.3117 7.82073 13.8573 8.62949 13.3571 9.52578C13.974 9.52578 14.4993 9.52578 15.0496 9.52578C15.083 9.66335 15.108 9.7509 15.1371 9.87596C13.8532 9.87596 12.6067 9.87596 11.3394 9.87596C11.3394 9.76757 11.3394 9.69253 11.3394 9.57163C11.8396 9.57163 12.3357 9.57163 12.861 9.57163C14.6244 6.49505 16.2877 3.39346 18.0095 0.391909C18.3263 0.31687 18.418 0.479452 18.5055 0.637867C18.739 1.05475 18.9641 1.47997 19.1892 1.89685C20.5316 4.38563 21.8781 6.87858 23.2205 9.36737C23.2497 9.4299 23.2955 9.47159 23.3622 9.5633ZM19.1517 6.56592C18.4639 5.29443 17.8135 4.07714 17.0965 2.79731C16.7255 3.45598 16.3753 4.05212 16.0543 4.66077C15.7249 5.28192 15.3331 5.86973 15.0454 6.57009C16.4336 6.56592 17.7427 6.56592 19.1517 6.56592Z" fill="black"/>
<path d="M56.967 9.55084C58.2093 9.53417 59.4266 9.65922 60.6189 9.33406C60.9065 9.25485 61.1858 9.15064 61.4568 9.02974C62.2447 8.67956 62.6783 8.03756 62.8658 7.21214C62.9075 7.02037 62.9409 6.82444 62.9867 6.59932C63.0701 6.59098 63.166 6.57847 63.3286 6.5618C63.3328 7.67487 63.3369 8.76293 63.3244 9.88017C59.8268 9.88017 56.3833 9.88017 52.9191 9.88017C52.9107 9.78846 52.9024 9.71342 52.894 9.61337C53.4652 9.46746 54.0488 9.62171 54.5991 9.51749C54.7033 8.99222 54.7033 1.58423 54.5908 1.02144C54.053 1.02144 53.5027 1.02144 52.9316 1.02144C52.9149 0.871366 52.9066 0.779653 52.8982 0.696276C53.3693 0.575381 58.0926 0.558704 58.6595 0.675431C58.6595 0.762976 58.6595 0.85886 58.6595 1.00894C58.0884 1.00894 57.5339 1.00894 57.0003 1.00894C56.8794 1.49669 56.8544 8.77544 56.967 9.55084Z" fill="black"/>
<path d="M10.5139 7.07884C10.7724 7.47071 10.8099 9.05903 10.689 9.86361C10.3597 10.0429 10.2721 9.63433 10.0304 9.52594C9.80107 9.56763 9.56761 9.59264 9.3425 9.65517C8.93812 9.76773 8.55042 9.93865 8.14188 10.0179C7.30812 10.1804 6.47435 10.2888 5.60307 10.1804C4.70678 10.0679 3.83966 9.89695 3.0059 9.55511C2.10127 9.18408 1.33837 8.62547 0.75474 7.83339C0.266988 7.17472 -0.00815349 6.43684 0.000184144 5.61141C0.00852177 5.07364 -0.0373352 4.54003 0.129417 4.01059C0.450416 3.00174 1.04239 2.20966 1.91367 1.61352C2.8725 0.963185 3.93138 0.604668 5.07363 0.442084C6.12834 0.292007 7.17472 0.296175 8.21275 0.571317C8.51707 0.650524 8.81306 0.779756 9.11321 0.875638C9.33833 0.946508 9.56345 1.00487 9.78439 1.06741C10.022 0.900654 10.2263 0.750573 10.4764 0.575483C10.6598 1.07991 10.5515 1.55516 10.5723 2.01373C10.5931 2.46813 10.5765 2.9267 10.5765 3.40195C10.4597 3.41028 10.3847 3.41862 10.2888 3.42696C10.2388 3.14348 10.2221 2.86417 10.1346 2.6057C9.9303 1.98872 9.49675 1.55099 8.92562 1.25917C8.4462 1.01321 7.93761 0.871473 7.39983 0.788097C6.70364 0.683877 6.01578 0.667201 5.3321 0.84646C3.68125 1.28002 2.79746 2.4181 2.47646 4.0356C2.25968 5.14867 2.31388 6.26175 2.68907 7.33314C3.18099 8.72969 4.18151 9.58013 5.6531 9.78857C6.58691 9.91781 7.5249 9.85944 8.42953 9.55928C9.10488 9.33417 9.71769 9.00483 10.072 8.35033C10.2013 8.10854 10.268 7.8334 10.3597 7.57076C10.4181 7.40818 10.4639 7.24142 10.5139 7.07884Z" fill="black"/>
<path d="M70.6116 9.57599C70.62 9.68438 70.6283 9.75942 70.6325 9.82612C70.4699 9.94702 65.6007 9.96785 64.8211 9.85529C64.8128 9.78859 64.8086 9.71356 64.8003 9.61351C65.3714 9.47594 65.9551 9.61768 66.5095 9.52597C66.6096 9.07156 66.6346 1.9012 66.5387 1.06327C65.9884 0.946541 65.4048 1.09245 64.8253 0.971553C64.8253 0.863164 64.8253 0.771449 64.8253 0.683904C65.2755 0.583852 69.8821 0.563009 70.5991 0.658892C70.6158 0.738099 70.6283 0.825639 70.6533 0.946535C70.0655 1.10912 69.4819 0.946539 68.9274 1.05493C68.8315 1.5135 68.8065 8.71721 68.9024 9.53847C69.4527 9.5885 70.0322 9.52179 70.6116 9.57599Z" fill="black"/>
</svg>
