<svg width="146" height="15" viewBox="0 0 146 15" fill="none" xmlns="http://www.w3.org/2000/svg">
<path d="M142.555 1.13385L138.143 6.63767H138.007L133.595 1.13385H130.153L136.716 8.90735V14.6173H139.438V8.91009L146 1.1366H142.558V1.13385H142.555ZM123.025 6.63767H115.18V1.12286H112.463V14.6145H115.18V8.98429H123.025V14.6173H125.732V1.12286H123.025V6.63767ZM84.9374 1.13385H82.4186V10.3499H82.3538L73.5736 1.13385H71.1994V14.6173H73.7152V5.36545H73.7712L82.6428 14.6173H84.9403L84.9374 1.13385ZM63.9707 12.2789H54.9871V8.97879H61.4372V6.63767H54.9871V3.43925H63.9707V1.13385H52.2737V14.6173H63.9707V12.2789ZM38.6803 11.2595H38.6095L34.2681 1.13385H31.13L37.5006 14.6173H39.7597L46.1303 1.13385H42.9922L38.6803 11.2595ZM22.2909 14.6173H25.0043V1.13385H22.2909V14.6173ZM7.20223 9.62177H11.8504V11.9684C11.1986 12.18 10.0454 12.4575 8.1814 12.4575C4.86637 12.4575 3.0319 10.905 3.0319 7.87418C3.0319 4.84337 4.87817 3.28812 8.1814 3.28812C11.5495 3.28812 13.2719 4.25809 14.2334 4.99724V2.29342C13.1657 1.47732 10.768 0.872807 8.1814 0.872807C4.32075 0.870059 0 2.34013 0 7.87143C0 13.4 4.32075 14.8728 8.17845 14.8728C10.5232 14.8728 12.977 14.37 14.5136 13.4632V7.27791H7.20223V9.62177ZM91.3875 7.87143C91.3875 13.4 95.7053 14.8701 99.566 14.8701C102.15 14.8701 104.547 14.2628 105.618 13.4494V10.7429C104.662 11.482 102.934 12.452 99.566 12.452C96.2598 12.452 94.4194 10.8995 94.4194 7.87143C94.4194 4.84336 96.2627 3.29086 99.566 3.29086C102.934 3.29086 104.659 4.26083 105.618 4.99999V2.29342C104.55 1.47732 102.153 0.872807 99.566 0.872807C95.7112 0.870059 91.3875 2.34287 91.3875 7.87143Z" fill="black"/>
</svg>
